<?xml version="1.0" standalone="no"?>
<!DOCTYPE svg PUBLIC "-//W3C//DTD SVG 20010904//EN"
 "http://www.w3.org/TR/2001/REC-SVG-20010904/DTD/svg10.dtd">
<svg version="1.0" xmlns="http://www.w3.org/2000/svg"
 width="2880.000000pt" height="2880.000000pt" viewBox="0 0 2880.000000 2880.000000"
 preserveAspectRatio="xMidYMid meet">
<metadata>
Created by potrace 1.14, written by Peter Selinger 2001-2017
</metadata>
<g transform="translate(0.000000,2880.000000) scale(0.100000,-0.100000)"
fill="#000000" stroke="none">
<path d="M0 14400 l0 -3040 3155 0 3155 0 0 3040 0 3040 -3155 0 -3155 0 0
-3040z m1770 2198 c0 -4 7 -5 15 -2 21 9 1585 10 1585 2 0 -4 7 -5 15 -2 24 9
945 10 945 1 0 -5 5 -5 11 -2 13 9 1168 9 1176 1 8 -8 10 -4375 2 -4388 -8
-12 -889 -17 -889 -5 0 5 -5 5 -11 1 -8 -5 -676 -8 -926 -5 l-43 1 0 524 0
523 -494 0 -493 0 1 -524 1 -523 -22 -1 c-101 -3 -225 -1 -229 4 -3 3 -12 3
-20 0 -23 -9 -644 -9 -644 0 0 5 -5 5 -11 1 -8 -5 -854 -9 -936 -5 -10 1 -13
448 -13 2200 l0 2200 33 3 c67 6 947 3 947 -4z"/>
<path d="M17668 16156 c-1 -2 -44 -6 -93 -9 -102 -7 -221 -29 -310 -59 -115
-38 -291 -131 -380 -200 -146 -114 -278 -259 -381 -420 -40 -61 -159 -288
-156 -295 1 -2 -10 -27 -23 -58 -14 -30 -22 -55 -19 -55 4 0 2 -6 -3 -12 -22
-27 -93 -294 -108 -403 -3 -22 -8 -47 -10 -55 -2 -8 -6 -37 -10 -65 -3 -27 -8
-66 -10 -85 -18 -124 -23 -367 -10 -485 4 -38 9 -86 10 -105 2 -19 4 -35 5
-35 2 0 6 -20 14 -65 3 -19 8 -45 11 -57 3 -13 7 -31 9 -41 8 -37 69 -208 84
-237 9 -16 16 -32 17 -35 0 -3 5 -12 10 -20 25 -38 46 -77 51 -92 4 -10 10
-18 15 -18 5 0 9 -7 9 -15 0 -8 4 -15 8 -15 4 0 15 -13 25 -29 33 -56 191
-206 262 -248 48 -30 184 -93 198 -93 9 0 18 -4 21 -8 4 -8 31 -15 136 -38 88
-19 313 -25 420 -11 46 6 123 22 201 41 38 10 187 71 211 88 14 10 29 18 33
18 4 0 32 17 63 37 257 167 451 394 597 696 31 65 58 124 59 130 2 7 9 26 15
42 7 17 14 37 16 45 2 8 13 42 25 75 21 60 46 149 54 196 2 13 5 24 6 24 4 0
37 195 45 270 3 28 8 75 12 105 9 77 9 403 0 474 -12 88 -35 203 -56 276 -25
89 -90 249 -112 282 -11 14 -19 29 -19 33 0 19 -113 167 -175 230 -69 69 -214
175 -240 175 -7 0 -15 4 -17 8 -4 12 -162 72 -188 72 -11 0 -20 4 -20 8 0 4
-16 9 -37 10 -20 2 -40 5 -44 8 -4 2 -50 7 -101 10 -51 3 -98 7 -105 9 -6 2
-13 2 -15 1z m69 -630 c131 -24 253 -144 294 -288 17 -60 16 -53 32 -151 13
-82 16 -405 3 -492 -2 -16 -7 -57 -10 -90 -4 -33 -8 -71 -11 -85 -3 -13 -7
-42 -11 -65 -14 -96 -58 -285 -86 -368 -27 -82 -88 -219 -121 -272 -101 -165
-243 -275 -392 -305 -114 -24 -240 -11 -319 33 -41 22 -126 98 -126 112 0 4
-8 19 -18 33 -19 27 -39 76 -51 124 -1 4 -7 22 -12 40 -43 141 -42 433 2 758
16 114 18 131 29 180 5 25 12 56 14 70 11 70 59 220 101 315 14 33 31 72 38
88 6 15 15 27 19 27 4 0 8 5 8 11 0 16 65 105 114 157 58 62 181 144 207 138
3 0 13 5 22 13 10 7 17 11 17 9 0 -2 26 1 58 7 60 12 134 12 199 1z"/>
<path d="M9209 16096 c-1 -16 -6 -47 -12 -81 -3 -16 -8 -48 -12 -70 -3 -23 -7
-50 -9 -62 -3 -11 -7 -38 -10 -59 -4 -22 -11 -68 -17 -104 -6 -36 -12 -77 -14
-92 -2 -15 -6 -35 -9 -45 -2 -10 -7 -38 -10 -63 -3 -25 -8 -54 -10 -65 -2 -11
-7 -40 -11 -65 -4 -25 -9 -52 -10 -60 -3 -19 -13 -83 -21 -134 -3 -21 -8 -48
-10 -60 -2 -11 -6 -37 -9 -56 -3 -19 -7 -46 -10 -60 -3 -14 -7 -38 -9 -55 -3
-16 -7 -43 -10 -60 -5 -28 -51 -316 -61 -380 -3 -16 -10 -57 -15 -90 -6 -33
-12 -71 -14 -85 -3 -14 -5 -25 -6 -25 -1 0 -3 -11 -4 -25 -8 -71 -18 -139 -27
-178 -5 -23 -11 -58 -14 -77 -2 -19 -9 -60 -14 -92 -6 -32 -13 -76 -16 -98 -3
-22 -14 -92 -26 -155 -11 -63 -22 -137 -25 -164 -3 -28 -7 -53 -9 -56 -2 -4
-7 -29 -10 -56 -3 -27 -10 -71 -15 -99 -6 -27 -12 -66 -14 -85 -3 -19 -7 -46
-10 -60 -3 -14 -7 -41 -10 -60 -3 -19 -7 -44 -10 -55 -2 -11 -7 -40 -10 -65
-3 -25 -8 -56 -11 -70 -17 -85 -16 -100 2 -101 24 0 627 0 673 0 29 1 36 5 38
24 2 22 9 58 12 67 1 3 2 8 1 12 0 4 3 29 8 55 5 26 12 68 16 93 3 25 13 83
21 130 9 46 17 100 20 120 2 19 11 76 20 125 9 50 17 104 19 120 5 37 10 64
23 140 6 33 14 78 17 100 3 22 10 65 15 95 9 57 20 120 25 155 2 11 6 34 9 50
3 17 8 48 11 70 4 22 18 105 31 185 14 80 27 163 29 185 3 22 7 51 10 65 3 14
8 41 11 60 3 19 7 46 10 60 5 31 16 99 30 190 3 19 9 55 14 80 5 25 11 63 14
85 3 22 7 49 10 60 2 11 7 45 12 75 4 30 8 57 9 60 2 9 17 95 21 125 2 17 7
41 9 55 l6 26 532 -1 c526 0 532 0 531 -20 -2 -23 -12 -88 -19 -125 -3 -14 -8
-44 -11 -66 -2 -23 -7 -53 -10 -65 -3 -13 -7 -40 -10 -59 -2 -19 -6 -46 -9
-60 -7 -36 -16 -91 -20 -120 -2 -14 -8 -52 -14 -85 -5 -33 -12 -73 -14 -90 -3
-16 -19 -115 -37 -220 -17 -104 -33 -203 -35 -218 -6 -44 -15 -101 -19 -122
-7 -36 -19 -110 -22 -130 -2 -20 -9 -57 -20 -117 -4 -18 -8 -44 -9 -58 -2 -14
-4 -25 -5 -25 -1 0 -3 -16 -5 -35 -2 -19 -15 -102 -28 -185 -14 -82 -28 -168
-31 -190 -4 -23 -9 -52 -11 -65 -3 -14 -7 -41 -10 -60 -2 -19 -4 -35 -5 -35
-1 0 -3 -9 -4 -20 -2 -11 -6 -37 -10 -57 -3 -21 -8 -55 -11 -75 -3 -21 -8 -49
-10 -63 -3 -14 -7 -41 -10 -60 -3 -19 -10 -57 -15 -85 -5 -27 -11 -69 -14 -92
-2 -23 -7 -47 -11 -52 -8 -13 -37 -12 378 -13 186 0 341 2 344 6 3 3 7 16 8
28 2 13 10 64 18 113 9 50 18 110 22 135 3 25 8 52 10 60 3 8 9 44 14 80 6 36
13 81 16 100 3 19 20 118 37 220 17 102 32 199 34 215 1 17 7 55 13 85 6 30
13 69 15 85 3 17 12 75 22 130 9 55 18 112 20 128 2 15 6 39 9 55 3 15 8 43
11 62 3 19 10 62 15 95 6 33 12 74 14 90 2 17 6 41 9 54 3 12 8 42 10 65 3 22
8 52 11 66 3 14 7 39 10 55 2 17 6 41 9 55 3 14 9 57 15 95 6 39 13 81 16 95
2 13 7 42 10 65 4 22 13 78 21 125 8 47 17 101 20 120 3 19 12 76 20 125 9 50
18 106 20 125 3 19 9 58 14 85 5 28 12 70 15 95 3 25 8 52 10 60 2 8 7 35 10
60 3 25 8 52 10 60 2 8 6 33 10 55 9 65 15 99 20 116 5 14 -117 15 -1260 15
-888 0 -1265 -3 -1266 -10z"/>
<path d="M12865 16091 c-6 -21 -16 -78 -20 -116 -2 -16 -5 -31 -6 -32 -1 -2
-2 -11 -3 -20 -2 -15 -18 -107 -21 -123 -1 -3 -5 -30 -10 -60 -5 -30 -9 -57
-10 -60 -1 -3 -5 -30 -9 -60 -5 -30 -10 -64 -12 -75 -2 -11 -13 -78 -25 -150
-11 -71 -22 -141 -25 -155 -2 -14 -7 -41 -10 -60 -2 -19 -7 -46 -10 -60 -10
-54 -12 -67 -19 -115 -11 -78 -13 -88 -20 -125 -11 -63 -16 -95 -21 -125 -2
-16 -6 -41 -8 -55 -4 -25 -46 -281 -66 -400 -6 -36 -13 -81 -16 -100 -2 -19
-9 -57 -14 -85 -5 -27 -12 -66 -14 -85 -3 -19 -12 -78 -21 -130 -10 -52 -18
-104 -20 -115 -2 -19 -18 -114 -20 -125 -1 -3 -5 -30 -9 -60 -5 -30 -10 -64
-13 -75 -2 -11 -6 -36 -8 -55 -3 -19 -7 -46 -10 -60 -2 -14 -7 -41 -10 -60 -3
-19 -7 -46 -10 -60 -4 -24 -9 -50 -19 -115 -5 -34 -19 -117 -21 -125 -1 -3 -5
-30 -9 -60 -5 -30 -10 -64 -12 -75 -16 -77 -15 -85 3 -86 10 0 177 0 370 -1
283 0 355 3 365 14 8 7 47 63 88 123 40 61 77 111 82 113 4 2 8 7 8 12 0 4 18
34 40 66 22 33 62 91 88 129 225 331 267 390 274 393 4 2 8 8 8 12 0 11 92
144 102 148 4 2 8 7 8 12 0 4 18 34 40 66 42 62 87 127 265 389 60 88 113 165
117 170 5 6 19 26 31 45 13 19 50 73 82 120 33 47 77 111 98 143 38 56 51 70
42 45 -2 -7 -7 -31 -9 -53 -3 -22 -8 -51 -10 -65 -3 -13 -8 -42 -11 -65 -3
-22 -8 -47 -10 -55 -2 -8 -6 -35 -9 -60 -3 -25 -8 -56 -11 -70 -2 -13 -7 -42
-10 -65 -3 -22 -8 -47 -10 -55 -3 -8 -7 -35 -11 -60 -3 -25 -7 -54 -9 -65 -10
-57 -17 -100 -21 -119 -2 -11 -7 -39 -9 -61 -6 -45 -13 -80 -15 -80 -1 0 -3
-13 -5 -30 -1 -16 -6 -48 -10 -70 -3 -22 -8 -53 -11 -70 -4 -27 -18 -109 -28
-160 -2 -11 -7 -42 -11 -70 -11 -72 -12 -76 -20 -120 -12 -72 -53 -329 -59
-370 -7 -42 -16 -96 -23 -130 -2 -11 -6 -40 -9 -65 l-5 -45 348 2 c191 1 353
2 360 2 17 1 26 38 49 201 4 32 11 75 30 180 3 19 7 47 9 62 2 15 9 53 14 85
6 32 13 74 15 93 3 19 7 44 9 55 6 27 20 116 22 135 1 14 12 75 21 125 2 11 6
38 9 60 3 22 7 51 10 65 7 38 15 81 21 120 3 19 7 44 8 55 2 11 7 39 11 63 4
23 8 52 10 65 2 12 5 31 8 42 2 11 8 43 11 70 11 75 17 115 22 139 2 11 7 41
10 66 3 25 9 63 14 86 5 22 12 58 15 80 2 21 7 50 10 64 2 13 7 42 10 65 3 22
8 51 10 65 3 14 7 41 10 60 3 19 8 46 10 60 3 14 8 43 10 65 3 22 7 47 10 55
2 8 7 39 10 69 3 30 8 57 9 60 2 3 7 26 10 51 3 25 8 56 11 70 3 14 7 39 10
55 2 17 6 41 9 55 6 31 16 95 21 135 4 31 15 97 20 126 2 9 6 32 9 50 3 19 7
43 10 54 4 21 18 110 21 135 4 28 18 125 19 130 0 3 -167 5 -372 6 -364 0
-373 0 -384 -20 -6 -11 -15 -25 -19 -30 -5 -6 -27 -38 -50 -71 -22 -33 -57
-84 -77 -113 -20 -30 -41 -61 -47 -70 -5 -9 -12 -19 -15 -22 -5 -5 -105 -152
-211 -310 -35 -52 -70 -99 -76 -103 -7 -4 -13 -12 -13 -17 0 -5 -47 -78 -105
-162 -57 -84 -110 -161 -117 -172 -7 -10 -20 -28 -29 -40 -8 -11 -19 -28 -22
-36 -4 -8 -21 -33 -37 -55 -17 -22 -55 -78 -86 -125 -31 -47 -59 -87 -63 -90
-3 -3 -42 -59 -86 -125 -44 -66 -82 -122 -85 -125 -3 -3 -25 -35 -48 -72 -24
-37 -52 -77 -63 -89 -10 -12 -19 -28 -19 -36 0 -7 -4 -13 -9 -13 -5 0 -23 -22
-40 -50 -29 -47 -61 -70 -47 -33 4 9 9 32 12 52 3 20 11 72 19 116 8 44 17 98
20 120 10 71 14 93 24 152 6 32 12 72 15 88 8 52 37 229 43 260 3 17 7 40 8
52 4 26 15 98 21 128 2 11 7 40 10 65 3 25 8 47 9 50 2 3 7 33 10 65 4 33 9
63 11 66 1 3 6 28 9 55 4 27 8 56 10 64 3 8 7 33 10 55 3 22 8 51 11 65 2 14
7 42 9 62 3 21 9 57 14 80 6 24 13 66 16 93 4 28 8 59 10 70 7 40 17 98 20
115 2 10 6 38 10 62 l7 44 -361 0 c-320 1 -361 -1 -366 -15z"/>
<path d="M20052 16101 c-5 -3 -15 -46 -22 -96 -8 -49 -14 -92 -15 -95 -1 -3
-4 -27 -9 -53 -4 -27 -9 -56 -10 -65 -2 -10 -7 -39 -11 -67 -5 -27 -9 -52 -10
-55 0 -3 -5 -30 -9 -60 -4 -30 -9 -62 -11 -70 -1 -8 -6 -33 -9 -55 -4 -22 -9
-51 -11 -65 -2 -14 -14 -83 -25 -155 -11 -71 -23 -141 -25 -155 -5 -25 -10
-58 -20 -122 -2 -18 -9 -58 -15 -88 -6 -30 -13 -71 -15 -90 -4 -33 -8 -62 -21
-135 -3 -16 -8 -43 -10 -60 -3 -16 -7 -41 -9 -55 -2 -14 -9 -56 -15 -95 -7
-38 -14 -79 -15 -90 -13 -80 -17 -106 -25 -155 -5 -30 -11 -68 -14 -85 -2 -16
-8 -50 -12 -75 -4 -25 -8 -49 -9 -55 -1 -5 -3 -12 -4 -15 -2 -5 -4 -14 -15
-95 -5 -37 -9 -61 -21 -125 -3 -14 -7 -41 -10 -60 -2 -19 -7 -53 -11 -75 -3
-22 -7 -49 -9 -60 -2 -11 -6 -36 -10 -55 -4 -19 -9 -46 -10 -60 -2 -14 -4 -25
-5 -25 -1 0 -3 -16 -5 -35 -1 -19 -8 -62 -14 -95 -6 -33 -13 -78 -16 -100 -4
-22 -9 -48 -11 -58 -3 -10 -8 -35 -10 -55 -5 -43 -12 -88 -18 -118 -2 -12 -7
-45 -11 -75 -4 -30 -9 -57 -12 -61 -5 -10 6 -10 400 -10 176 0 321 3 324 5 2
3 7 20 9 39 6 39 43 269 51 313 3 17 6 41 8 55 2 14 6 41 10 60 4 19 8 46 10
60 2 14 6 39 9 55 3 17 8 50 11 75 4 24 8 47 10 50 2 3 6 29 10 59 7 52 9 68
20 121 5 29 12 69 20 125 3 22 11 67 16 100 14 80 15 88 29 176 l12 75 528 0
528 0 -5 -30 c-2 -17 -15 -98 -28 -181 -14 -82 -27 -168 -30 -190 -3 -22 -9
-53 -12 -70 -3 -16 -7 -39 -9 -50 -2 -19 -30 -193 -39 -245 -2 -14 -7 -42 -10
-64 -4 -21 -8 -48 -11 -59 -2 -12 -6 -39 -9 -62 -8 -55 -23 -145 -29 -174 -3
-12 -8 -42 -10 -65 -3 -22 -10 -64 -15 -92 -19 -97 -52 -88 348 -87 194 1 354
3 356 5 3 2 22 114 41 233 3 17 7 44 10 60 3 17 7 43 9 58 2 16 6 40 9 55 6
28 11 59 21 131 3 23 10 53 15 66 5 13 7 25 4 28 -3 2 0 24 5 48 5 24 12 67
16 94 3 28 10 68 15 90 5 22 11 65 15 95 3 30 8 62 10 70 2 8 7 31 10 50 3 19
7 46 10 60 3 14 7 43 10 65 2 22 7 51 10 65 3 14 7 39 9 55 7 47 17 109 21
125 5 14 13 73 20 135 2 17 4 30 5 30 2 0 5 19 16 85 4 25 8 47 9 50 0 3 4 28
9 55 4 28 18 115 31 195 13 80 26 163 29 185 4 23 9 52 12 65 3 14 7 41 9 60
2 19 4 35 5 35 1 0 3 9 4 20 5 30 16 98 20 122 3 11 7 38 10 59 3 22 8 50 11
64 2 14 7 41 9 60 3 19 7 44 10 55 2 11 9 56 16 100 6 44 14 91 16 105 7 32
10 54 18 110 4 25 9 56 11 70 13 64 15 78 21 121 l6 46 -360 -1 -361 0 -11
-65 c-12 -71 -17 -99 -24 -146 -15 -102 -19 -122 -22 -140 -2 -11 -7 -40 -10
-65 -3 -25 -7 -47 -9 -50 -2 -3 -6 -29 -10 -59 -7 -52 -9 -68 -20 -121 -2 -14
-7 -38 -9 -55 -6 -40 -18 -116 -21 -135 -1 -8 -6 -35 -10 -60 -4 -25 -9 -54
-11 -65 -2 -11 -7 -40 -10 -65 -3 -25 -8 -54 -11 -65 -2 -11 -6 -31 -8 -45 -2
-14 -6 -43 -10 -65 -4 -22 -8 -51 -9 -65 0 -14 -4 -27 -8 -30 -5 -4 -1023 -5
-1051 -1 -5 0 -6 13 -3 29 3 15 8 42 11 60 3 17 8 47 11 65 3 17 7 41 8 52 2
11 6 34 9 50 3 17 9 48 12 70 3 22 10 65 15 95 5 30 12 73 15 94 3 21 7 48 10
60 2 12 7 39 10 60 3 21 7 48 10 60 2 12 7 37 10 56 2 19 6 44 9 55 2 11 7 43
10 70 4 28 9 57 11 65 2 8 6 31 9 50 3 19 14 91 26 160 11 69 20 130 20 136 0
11 -702 16 -718 5z"/>
<path d="M23634 16102 c3 -2 1 -15 -5 -29 -5 -13 -11 -48 -14 -76 -3 -29 -7
-59 -10 -67 -6 -20 -13 -65 -20 -124 -4 -28 -8 -52 -10 -55 -2 -3 -6 -31 -10
-61 -3 -30 -8 -62 -10 -70 -4 -14 -10 -52 -20 -125 -2 -16 -7 -41 -10 -55 -3
-14 -7 -41 -10 -60 -3 -19 -7 -46 -10 -60 -3 -14 -8 -45 -11 -70 -3 -25 -7
-52 -9 -60 -3 -8 -7 -33 -10 -55 -3 -22 -8 -51 -11 -65 -6 -23 -8 -39 -18
-115 -2 -16 -9 -57 -15 -90 -14 -79 -19 -112 -26 -160 -3 -22 -8 -53 -12 -70
-3 -16 -7 -41 -8 -55 -3 -25 -21 -136 -29 -177 -3 -11 -8 -43 -12 -70 -3 -26
-8 -57 -10 -68 -2 -11 -13 -78 -25 -150 -22 -143 -27 -170 -33 -200 -5 -31
-19 -118 -21 -140 -2 -11 -10 -60 -19 -110 -8 -49 -18 -108 -21 -130 -4 -22
-8 -47 -10 -55 -3 -8 -7 -35 -10 -60 -6 -46 -31 -207 -39 -246 -2 -12 -7 -39
-10 -60 -3 -22 -8 -50 -11 -64 -3 -14 -7 -41 -9 -60 -3 -19 -7 -44 -9 -55 -3
-11 -8 -39 -12 -62 -6 -40 -5 -43 17 -44 12 0 477 -1 1033 -1 l1010 0 7 38 c3
22 9 54 12 72 8 44 14 80 21 127 3 23 7 52 10 65 3 13 7 42 10 65 3 22 8 47
10 55 3 8 7 35 10 59 3 25 10 62 14 83 5 21 6 39 2 39 -3 1 -305 2 -671 3
-579 1 -665 3 -663 16 1 8 7 44 13 80 6 36 13 76 15 90 1 14 8 57 15 95 6 39
13 81 15 95 5 35 45 271 50 295 2 11 7 41 10 66 l7 45 560 0 c308 -1 564 2
569 5 5 3 11 23 14 45 2 21 6 50 9 64 18 94 29 160 31 191 1 20 5 41 9 48 4 6
5 11 3 11 -2 0 4 41 13 91 10 50 17 100 16 112 l-1 22 -563 0 -563 0 5 40 c8
62 15 102 32 198 3 17 7 41 9 52 10 70 17 112 20 125 2 8 7 33 10 55 3 23 8
52 10 65 3 14 7 41 10 60 3 19 7 44 9 55 3 11 5 25 5 30 1 7 221 11 673 11
l672 0 17 103 c10 57 17 107 17 110 -1 3 2 24 7 46 12 61 14 76 21 125 7 52
11 75 18 98 2 9 7 42 11 73 l6 56 -1036 0 c-569 0 -1033 -2 -1031 -5z"/>
<path d="M26621 16096 c-4 -6 -13 -49 -21 -96 -7 -47 -14 -92 -16 -101 -10
-59 -16 -98 -19 -124 -2 -16 -6 -40 -9 -51 -2 -12 -7 -39 -10 -60 -3 -22 -8
-50 -11 -64 -2 -14 -7 -41 -9 -60 -3 -19 -7 -44 -10 -55 -3 -18 -13 -80 -22
-140 -1 -11 -5 -36 -8 -55 -4 -19 -8 -48 -11 -65 -6 -39 -13 -82 -30 -180 -8
-44 -17 -98 -20 -120 -3 -22 -10 -67 -16 -100 -6 -33 -12 -75 -14 -94 -2 -19
-9 -57 -14 -85 -6 -28 -13 -67 -16 -86 -12 -77 -16 -106 -20 -135 -2 -16 -4
-30 -5 -30 -2 0 -7 -27 -20 -120 -7 -44 -14 -89 -16 -100 -2 -10 -6 -35 -9
-55 -3 -20 -8 -47 -11 -60 -3 -14 -7 -42 -9 -62 -2 -20 -6 -45 -9 -55 -3 -10
-8 -38 -11 -63 -3 -25 -8 -52 -10 -60 -3 -8 -7 -33 -10 -55 -2 -22 -7 -51 -9
-65 -3 -14 -8 -43 -11 -65 -3 -22 -8 -51 -10 -65 -2 -14 -11 -65 -19 -115 -8
-49 -18 -108 -21 -130 -3 -23 -8 -52 -10 -65 -6 -27 -14 -79 -20 -125 -2 -16
-7 -41 -9 -55 -3 -13 -8 -40 -11 -60 -3 -20 -8 -47 -10 -60 -3 -14 -8 -45 -11
-70 -3 -24 -8 -48 -10 -52 -6 -10 -34 -9 374 -10 189 0 345 2 348 4 4 4 30
145 39 215 3 24 15 96 20 124 5 24 13 78 20 124 3 22 10 63 15 90 5 28 12 68
15 90 3 23 8 52 10 65 3 14 7 41 10 60 5 37 12 82 20 116 2 11 7 40 10 65 3
24 8 55 11 69 5 25 10 55 13 77 1 10 69 13 304 11 334 -1 365 1 572 37 74 14
297 94 345 125 8 5 35 22 60 37 108 65 310 247 310 279 0 7 3 14 8 16 10 5 52
66 52 77 0 5 3 11 8 13 8 3 73 135 77 158 2 8 4 16 5 18 2 1 4 7 5 12 1 6 4
12 5 15 1 3 4 10 5 15 1 6 3 11 5 13 1 1 3 9 5 17 31 138 38 184 41 300 3 115
-10 254 -29 325 -28 100 -98 246 -152 315 -53 67 -199 199 -260 235 -67 39
-215 108 -215 100 0 -2 -19 2 -42 11 -22 8 -56 16 -74 18 -18 3 -37 7 -41 9
-25 15 -212 20 -751 22 -419 1 -605 -2 -611 -9z m1206 -615 c60 -17 93 -36
139 -81 48 -47 77 -101 91 -165 11 -51 10 -216 -2 -271 -13 -58 -54 -161 -75
-187 -57 -69 -101 -114 -137 -138 -90 -62 -220 -94 -373 -92 -30 0 -128 1
-218 2 l-164 1 6 28 c4 15 8 43 11 62 3 19 7 46 10 60 3 14 7 41 10 60 3 19 7
46 10 60 2 13 7 42 10 65 3 22 13 81 21 130 9 50 17 102 19 117 2 15 6 35 9
45 3 10 7 36 10 58 7 55 16 116 21 141 3 12 7 39 10 60 3 21 8 44 9 50 5 15
527 11 583 -5z"/>
</g>
</svg>
